<svg width="40" height="40" viewBox="0 0 40 40" fill="none" xmlns="http://www.w3.org/2000/svg">
<path d="M18.3334 15.0001H25C25.4421 15.0001 25.866 14.8245 26.1785 14.5119C26.4911 14.1994 26.6667 13.7754 26.6667 13.3334C26.6667 12.8914 26.4911 12.4675 26.1785 12.1549C25.866 11.8423 25.4421 11.6667 25 11.6667H21.6667V10.0001C21.6667 9.55805 21.4911 9.13413 21.1785 8.82157C20.866 8.50901 20.4421 8.33341 20 8.33341C19.558 8.33341 19.1341 8.50901 18.8215 8.82157C18.509 9.13413 18.3334 9.55805 18.3334 10.0001V11.6667C17.0073 11.6667 15.7355 12.1935 14.7978 13.1312C13.8601 14.0689 13.3334 15.3407 13.3334 16.6667C13.3334 17.9928 13.8601 19.2646 14.7978 20.2023C15.7355 21.14 17.0073 21.6667 18.3334 21.6667H21.6667C22.1087 21.6667 22.5326 21.8423 22.8452 22.1549C23.1578 22.4675 23.3334 22.8914 23.3334 23.3334C23.3334 23.7754 23.1578 24.1994 22.8452 24.5119C22.5326 24.8245 22.1087 25.0001 21.6667 25.0001H15C14.558 25.0001 14.1341 25.1757 13.8215 25.4882C13.509 25.8008 13.3334 26.2247 13.3334 26.6667C13.3334 27.1088 13.509 27.5327 13.8215 27.8453C14.1341 28.1578 14.558 28.3334 15 28.3334H18.3334V30.0001C18.3334 30.4421 18.509 30.866 18.8215 31.1786C19.1341 31.4912 19.558 31.6667 20 31.6667C20.4421 31.6667 20.866 31.4912 21.1785 31.1786C21.4911 30.866 21.6667 30.4421 21.6667 30.0001V28.3334C22.9928 28.3334 24.2645 27.8066 25.2022 26.8689C26.1399 25.9313 26.6667 24.6595 26.6667 23.3334C26.6667 22.0073 26.1399 20.7356 25.2022 19.7979C24.2645 18.8602 22.9928 18.3334 21.6667 18.3334H18.3334C17.8913 18.3334 17.4674 18.1578 17.1549 17.8453C16.8423 17.5327 16.6667 17.1088 16.6667 16.6667C16.6667 16.2247 16.8423 15.8008 17.1549 15.4882C17.4674 15.1757 17.8913 15.0001 18.3334 15.0001ZM20 1.66675C16.374 1.66675 12.8295 2.74198 9.81457 4.75647C6.79967 6.77096 4.44984 9.63424 3.06224 12.9842C1.67463 16.3342 1.31157 20.0204 2.01897 23.5767C2.72636 27.1331 4.47244 30.3997 7.0364 32.9637C9.60037 35.5277 12.8671 37.2737 16.4234 37.9811C19.9797 38.6885 23.6659 38.3255 27.0159 36.9379C30.3659 35.5503 33.2291 33.2004 35.2436 30.1855C37.2581 27.1706 38.3334 23.6261 38.3334 20.0001C38.3334 15.1378 36.4018 10.4746 32.9637 7.03646C29.5255 3.59829 24.8623 1.66675 20 1.66675ZM20 35.0001C17.0333 35.0001 14.1332 34.1203 11.6665 32.4721C9.19974 30.8239 7.27715 28.4812 6.14184 25.7403C5.00652 22.9994 4.70947 19.9834 5.28825 17.0737C5.86703 14.164 7.29564 11.4913 9.39343 9.39348C11.4912 7.29569 14.164 5.86708 17.0737 5.2883C19.9834 4.70952 22.9994 5.00657 25.7403 6.14189C28.4812 7.2772 30.8239 9.19979 32.4721 11.6665C34.1203 14.1333 35 17.0334 35 20.0001C35 23.9783 33.4197 27.7936 30.6066 30.6067C27.7936 33.4197 23.9783 35.0001 20 35.0001Z" fill="#FF2222"/>
</svg>
