<svg width="40" height="40" viewBox="0 0 40 40" fill="none" xmlns="http://www.w3.org/2000/svg">
<path d="M20 18.0001C20.6593 18.0001 21.3038 17.8046 21.8519 17.4383C22.4001 17.072 22.8273 16.5514 23.0796 15.9423C23.3319 15.3333 23.3979 14.663 23.2693 14.0164C23.1407 13.3698 22.8232 12.7759 22.357 12.3097C21.8909 11.8435 21.2969 11.5261 20.6503 11.3974C20.0037 11.2688 19.3335 11.3348 18.7244 11.5871C18.1153 11.8394 17.5947 12.2667 17.2285 12.8148C16.8622 13.363 16.6667 14.0075 16.6667 14.6667C16.6667 15.5508 17.0179 16.3986 17.643 17.0238C18.2681 17.6489 19.116 18.0001 20 18.0001ZM18.8167 29.5167C18.9716 29.6729 19.156 29.7969 19.3591 29.8816C19.5622 29.9662 19.78 30.0097 20 30.0097C20.22 30.0097 20.4379 29.9662 20.641 29.8816C20.8441 29.7969 21.0284 29.6729 21.1834 29.5167L28 22.6834C29.5833 21.101 30.6617 19.0845 31.0988 16.8892C31.5359 14.6938 31.3122 12.4181 30.4558 10.3499C29.5995 8.28169 28.149 6.51392 26.2878 5.27016C24.4267 4.02641 22.2385 3.36255 20 3.36255C17.7615 3.36255 15.5733 4.02641 13.7122 5.27016C11.8511 6.51392 10.4006 8.28169 9.54422 10.3499C8.68786 12.4181 8.4641 14.6938 8.90123 16.8892C9.33837 19.0845 10.4168 21.101 12 22.6834L18.8167 29.5167ZM12.05 13.9001C12.1639 12.7118 12.5417 11.5639 13.1559 10.5403C13.7701 9.51663 14.6051 8.64308 15.6 7.9834C16.907 7.12523 18.4365 6.668 20 6.668C21.5636 6.668 23.093 7.12523 24.4 7.9834C25.3883 8.64082 26.2186 9.50907 26.8312 10.5257C27.4439 11.5423 27.8236 12.6821 27.9431 13.863C28.0627 15.044 27.919 16.2367 27.5225 17.3555C27.126 18.4743 26.4865 19.4913 25.65 20.3334L20 25.9834L14.35 20.3334C13.5126 19.4995 12.8716 18.4893 12.4737 17.3764C12.0758 16.2635 11.9311 15.0759 12.05 13.9001ZM31.6667 33.3334H8.33335C7.89133 33.3334 7.4674 33.509 7.15484 33.8216C6.84228 34.1341 6.66669 34.558 6.66669 35.0001C6.66669 35.4421 6.84228 35.866 7.15484 36.1786C7.4674 36.4911 7.89133 36.6667 8.33335 36.6667H31.6667C32.1087 36.6667 32.5326 36.4911 32.8452 36.1786C33.1578 35.866 33.3334 35.4421 33.3334 35.0001C33.3334 34.558 33.1578 34.1341 32.8452 33.8216C32.5326 33.509 32.1087 33.3334 31.6667 33.3334Z" fill="#FF2222"/>
</svg>
