<svg width="34" height="34" viewBox="0 0 34 34" fill="none" xmlns="http://www.w3.org/2000/svg">
<path d="M9.66667 23.6666C10.3297 23.6666 10.9656 23.4032 11.4344 22.9344C11.9033 22.4655 12.1667 21.8296 12.1667 21.1666C12.1748 21.0835 12.1748 20.9997 12.1667 20.9166L16.8167 16.2666H17.2H17.5833L20.2667 18.9499C20.2667 18.9499 20.2667 19.0333 20.2667 19.0833C20.2667 19.7463 20.5301 20.3822 20.9989 20.851C21.4677 21.3199 22.1036 21.5833 22.7667 21.5833C23.4297 21.5833 24.0656 21.3199 24.5344 20.851C25.0033 20.3822 25.2667 19.7463 25.2667 19.0833V18.9499L31.3333 12.8333C31.8278 12.8333 32.3111 12.6866 32.7223 12.4119C33.1334 12.1372 33.4538 11.7468 33.643 11.29C33.8322 10.8331 33.8818 10.3305 33.7853 9.84553C33.6888 9.36057 33.4507 8.91512 33.1011 8.56548C32.7515 8.21585 32.306 7.97775 31.8211 7.88129C31.3361 7.78483 30.8334 7.83433 30.3766 8.02355C29.9198 8.21277 29.5294 8.5332 29.2547 8.94433C28.98 9.35545 28.8333 9.8388 28.8333 10.3333C28.8252 10.4164 28.8252 10.5001 28.8333 10.5833L22.8167 16.5999H22.55L19.6667 13.6666C19.6667 13.0035 19.4033 12.3677 18.9344 11.8988C18.4656 11.43 17.8297 11.1666 17.1667 11.1666C16.5036 11.1666 15.8677 11.43 15.3989 11.8988C14.9301 12.3677 14.6667 13.0035 14.6667 13.6666L9.66667 18.6666C9.00362 18.6666 8.36774 18.93 7.8989 19.3988C7.43006 19.8677 7.16667 20.5035 7.16667 21.1666C7.16667 21.8296 7.43006 22.4655 7.8989 22.9344C8.36774 23.4032 9.00362 23.6666 9.66667 23.6666ZM32.1667 30.3333H3.83333V1.99992C3.83333 1.55789 3.65774 1.13397 3.34518 0.821407C3.03262 0.508847 2.60869 0.333252 2.16667 0.333252C1.72464 0.333252 1.30072 0.508847 0.988155 0.821407C0.675595 1.13397 0.5 1.55789 0.5 1.99992V31.9999C0.5 32.4419 0.675595 32.8659 0.988155 33.1784C1.30072 33.491 1.72464 33.6666 2.16667 33.6666H32.1667C32.6087 33.6666 33.0326 33.491 33.3452 33.1784C33.6577 32.8659 33.8333 32.4419 33.8333 31.9999C33.8333 31.5579 33.6577 31.134 33.3452 30.8214C33.0326 30.5088 32.6087 30.3333 32.1667 30.3333Z" fill="#FF2222"/>
</svg>
