<svg width="28" height="28" viewBox="0 0 28 28" fill="none" xmlns="http://www.w3.org/2000/svg">
<path d="M6.92966 11.9297C7.91857 11.9297 8.88527 11.6365 9.70751 11.0871C10.5298 10.5377 11.1706 9.75677 11.5491 8.84314C11.9275 7.92951 12.0265 6.92417 11.8336 5.95427C11.6407 4.98436 11.1645 4.09345 10.4652 3.39419C9.76593 2.69492 8.87502 2.21872 7.90511 2.02579C6.93521 1.83287 5.92987 1.93188 5.01624 2.31032C4.10261 2.68876 3.32172 3.32962 2.77231 4.15187C2.22291 4.97412 1.92966 5.94081 1.92966 6.92972C1.93111 8.25536 2.45836 9.52629 3.39573 10.4637C4.33309 11.401 5.60402 11.9283 6.92966 11.9297ZM6.92966 5.26305C7.2593 5.26305 7.58153 5.3608 7.85561 5.54394C8.12969 5.72707 8.34331 5.98737 8.46946 6.29191C8.59561 6.59646 8.62861 6.93157 8.5643 7.25487C8.49999 7.57817 8.34126 7.87515 8.10817 8.10823C7.87509 8.34132 7.57811 8.50005 7.25481 8.56436C6.93151 8.62867 6.5964 8.59567 6.29186 8.46952C5.98731 8.34337 5.72701 8.12975 5.54388 7.85567C5.36074 7.58159 5.26299 7.25936 5.26299 6.92972C5.26329 6.48778 5.43898 6.06403 5.75148 5.75154C6.06397 5.43904 6.48772 5.26335 6.92966 5.26305ZM21.0703 16.0704C20.0814 16.0704 19.1147 16.3636 18.2924 16.913C17.4702 17.4624 16.8293 18.2433 16.4509 19.1569C16.0725 20.0706 15.9734 21.0759 16.1664 22.0458C16.3593 23.0157 16.8355 23.9066 17.5348 24.6059C18.234 25.3051 19.1249 25.7814 20.0948 25.9743C21.0647 26.1672 22.0701 26.0682 22.9837 25.6898C23.8973 25.3113 24.6782 24.6705 25.2276 23.8482C25.7771 23.026 26.0703 22.0593 26.0703 21.0704C26.0688 19.7447 25.5416 18.4738 24.6042 17.5364C23.6669 16.5991 22.3959 16.0718 21.0703 16.0704ZM21.0703 22.737C20.7407 22.737 20.4184 22.6393 20.1443 22.4561C19.8703 22.273 19.6566 22.0127 19.5305 21.7082C19.4044 21.4036 19.3713 21.0685 19.4357 20.7452C19.5 20.4219 19.6587 20.1249 19.8918 19.8918C20.1249 19.6588 20.4218 19.5 20.7451 19.4357C21.0684 19.3714 21.4036 19.4044 21.7081 19.5306C22.0126 19.6567 22.2729 19.8703 22.4561 20.1444C22.6392 20.4185 22.737 20.7407 22.737 21.0704C22.7367 21.5123 22.561 21.936 22.2485 22.2485C21.936 22.561 21.5122 22.7367 21.0703 22.737ZM26.845 1.15504C26.6903 1.00024 26.5066 0.877436 26.3044 0.793653C26.1022 0.709871 25.8855 0.666748 25.6666 0.666748C25.4477 0.666748 25.231 0.709871 25.0288 0.793653C24.8266 0.877436 24.6429 1.00024 24.4882 1.15504L1.15488 24.4884C0.998536 24.6428 0.874269 24.8266 0.78923 25.0292C0.704191 25.2318 0.660058 25.4492 0.659371 25.6689C0.658684 25.8886 0.701457 26.1063 0.785229 26.3095C0.869 26.5126 0.992115 26.6972 1.14749 26.8525C1.30286 27.0079 1.48743 27.131 1.69057 27.2148C1.8937 27.2985 2.1114 27.3413 2.33113 27.3406C2.55085 27.3399 2.76827 27.2958 2.97087 27.2107C3.17348 27.1257 3.35726 27.0014 3.51164 26.845L26.845 3.5117C26.9998 3.35699 27.1226 3.17329 27.2063 2.97111C27.2901 2.76893 27.3332 2.55222 27.3332 2.33337C27.3332 2.11452 27.2901 1.89781 27.2063 1.69563C27.1226 1.49345 26.9998 1.30975 26.845 1.15504Z" fill="#FF2222"/>
</svg>
